<?xml version="1.0" encoding="utf-8"?>
<!-- Generator: Adobe Illustrator 16.0.0, SVG Export Plug-In . SVG Version: 6.00 Build 0)  -->
<!DOCTYPE svg PUBLIC "-//W3C//DTD SVG 1.1//EN" "http://www.w3.org/Graphics/SVG/1.1/DTD/svg11.dtd">
<svg version="1.1" id="Layer_1" xmlns="http://www.w3.org/2000/svg" xmlns:xlink="http://www.w3.org/1999/xlink" x="0px" y="0px"
	 width="955px" height="259px" viewBox="0 0 955 259" enable-background="new 0 0 955 259" xml:space="preserve">
<g>
	<path fill-rule="evenodd" clip-rule="evenodd" d="M116.712,159.406c-32.033-5.534-64.246-15.761-96.635-30.677
		c36.246-44.945,84.006-79.213,138.195-99.15c-28.346,23.896-44.959,58.896-45.553,95.967
		C112.534,137.075,113.907,148.453,116.712,159.406z"/>
	<path fill-rule="evenodd" clip-rule="evenodd" d="M20.077,128.729c32.389,14.916,64.602,25.143,96.635,30.677
		c6.215,24.264,19.469,46.436,38.461,63.517C101.2,204.021,56.169,172.623,20.077,128.729z"/>
	<path fill-rule="evenodd" clip-rule="evenodd" d="M362.813,159.406c32.033-5.534,64.246-15.761,96.637-30.677
		c-36.246-44.945-84.008-79.213-138.197-99.15c28.348,23.896,44.957,58.896,45.553,95.967
		C366.99,137.075,365.619,148.453,362.813,159.406z"/>
	<path fill-rule="evenodd" clip-rule="evenodd" d="M459.449,128.729c-32.391,14.916-64.604,25.143-96.637,30.677
		c-6.215,24.264-19.471,46.436-38.461,63.517C378.324,204.021,423.355,172.623,459.449,128.729z"/>
	<circle fill-rule="evenodd" clip-rule="evenodd" fill="#8A8A8D" cx="238.951" cy="128.795" r="94.477"/>
	<circle fill-rule="evenodd" clip-rule="evenodd" cx="238.952" cy="128.794" r="38.779"/>
</g>
<g>
	<g>
		<path d="M527.959,92.629c-0.333,2.563-1.362,4.642-3.097,6.241c-1.733,1.602-3.553,2.688-5.449,3.264
			c-1.9,0.576-3.553,0.673-4.954,0.288c-1.404-0.384-1.942-1.344-1.609-2.88c0.162-1.023,0.495-2.688,0.99-4.992
			c0.496-2.305,0.867-4.639,1.115-7.009c0.247-2.367,0.329-4.416,0.247-6.145c-0.085-1.729-0.619-2.526-1.609-2.4
			c-0.991,0.129-2.105,1.089-3.345,2.88c-1.238,1.795-2.353,4.033-3.344,6.721c-0.99,2.688-1.857,5.602-2.601,8.737
			c-0.743,3.138-1.115,6.114-1.115,8.929c0,2.817,0.453,5.25,1.362,7.297c0.906,2.049,2.517,3.33,4.831,3.84
			c3.963,0.897,7.636,0.288,11.022-1.824c3.383-2.112,6.397-4.704,9.041-7.776c2.64-3.072,4.869-6.175,6.688-9.313
			c1.815-3.136,2.973-5.344,3.468-6.625c0.496-1.152,1.277-1.92,2.354-2.305c1.072-0.384,2.105-0.51,3.097-0.384
			c0.99,0.129,1.814,0.546,2.477,1.248c0.658,0.705,0.824,1.633,0.495,2.784c-0.332,0.769-0.909,2.179-1.733,4.225
			c-0.828,2.049-1.981,4.32-3.468,6.816s-3.306,5.089-5.449,7.777c-2.148,2.688-4.668,5.121-7.556,7.296
			c-2.891,2.179-6.192,3.937-9.907,5.281c-3.716,1.344-7.888,1.95-12.51,1.824c-5.944-0.259-10.569-1.792-13.871-4.609
			c-3.305-2.813-5.53-6.271-6.688-10.368c-1.153-4.096-1.32-8.479-0.496-13.153c0.829-4.672,2.354-9.024,4.583-13.058
			c2.229-4.032,4.992-7.393,8.298-10.08c3.302-2.688,7.017-4.033,11.146-4.033c6.274,0,10.938,2.146,13.995,6.433
			C527.421,81.847,528.617,86.869,527.959,92.629z"/>
		<path d="M562.141,120.664c-6.111,0-10.984-1.216-14.614-3.648c-3.635-2.431-6.154-5.439-7.556-9.025
			c-1.4-3.582-1.814-7.488-1.238-11.713c0.581-4.224,1.981-8.095,4.211-11.616c2.229-3.52,5.159-6.433,8.794-8.737
			c3.63-2.304,7.926-3.327,12.88-3.072c5.778,0.258,10.485,1.603,14.119,4.032c3.631,2.434,6.274,5.442,7.927,9.025
			c1.648,3.585,2.353,7.393,2.105,11.425c-0.248,4.032-1.447,7.776-3.592,11.232c-2.148,3.457-5.163,6.337-9.041,8.641
			C572.254,119.512,567.59,120.664,562.141,120.664z M565.36,112.023c1.815,0.129,3.302-0.543,4.459-2.017
			c1.153-1.47,1.981-3.391,2.477-5.761c0.496-2.367,0.701-4.959,0.619-7.776c-0.085-2.814-0.495-5.439-1.238-7.873
			c-0.743-2.43-1.776-4.479-3.096-6.145c-1.324-1.662-2.892-2.496-4.707-2.496c-1.652,0-3.058,0.769-4.211,2.305
			c-1.157,1.536-2.023,3.456-2.601,5.76c-0.58,2.305-0.867,4.834-0.867,7.585c0,2.755,0.329,5.313,0.991,7.681
			c0.658,2.37,1.648,4.387,2.973,6.049C561.479,111,563.213,111.897,565.36,112.023z"/>
		<path d="M617.376,120.664c-6.111,0-10.984-1.216-14.614-3.648c-3.635-2.431-6.154-5.439-7.556-9.025
			c-1.4-3.582-1.814-7.488-1.238-11.713c0.581-4.224,1.981-8.095,4.211-11.616c2.229-3.52,5.159-6.433,8.794-8.737
			c3.63-2.304,7.926-3.327,12.88-3.072c5.778,0.258,10.485,1.603,14.119,4.032c3.631,2.434,6.274,5.442,7.927,9.025
			c1.648,3.585,2.353,7.393,2.105,11.425c-0.248,4.032-1.447,7.776-3.592,11.232c-2.148,3.457-5.163,6.337-9.041,8.641
			C627.489,119.512,622.825,120.664,617.376,120.664z M620.596,112.023c1.815,0.129,3.302-0.543,4.459-2.017
			c1.153-1.47,1.981-3.391,2.477-5.761c0.496-2.367,0.701-4.959,0.619-7.776c-0.085-2.814-0.495-5.439-1.238-7.873
			c-0.743-2.43-1.776-4.479-3.096-6.145c-1.324-1.662-2.892-2.496-4.707-2.496c-1.652,0-3.058,0.769-4.211,2.305
			c-1.157,1.536-2.023,3.456-2.601,5.76c-0.58,2.305-0.867,4.834-0.867,7.585c0,2.755,0.329,5.313,0.991,7.681
			c0.658,2.37,1.648,4.387,2.973,6.049C616.714,111,618.448,111.897,620.596,112.023z"/>
		<path d="M654.281,45.394c0-3.072,1.072-5.215,3.22-6.433c2.145-1.215,4.498-1.759,7.06-1.633c2.559,0.13,4.788,0.835,6.688,2.112
			c1.896,1.281,2.601,2.946,2.105,4.993c-0.333,1.536-0.867,4.545-1.61,9.024c-0.743,4.482-1.447,9.634-2.105,15.457
			c-0.662,5.827-1.238,11.875-1.733,18.146c-0.496,6.273-0.786,12.067-0.867,17.378c-0.085,5.313,0.162,9.667,0.743,13.057
			c0.576,3.394,1.691,5.089,3.344,5.089c0.991,0,2.354-1.407,4.087-4.225c1.734-2.814,3.468-6.016,5.202-9.601
			c1.733-3.582,3.344-7.071,4.83-10.465c1.486-3.391,2.477-5.599,2.973-6.625c0.328-1.151,1.071-1.92,2.229-2.304
			c1.153-0.384,2.269-0.48,3.345-0.288c1.071,0.192,1.981,0.642,2.725,1.344c0.743,0.705,0.866,1.633,0.371,2.784
			c-0.99,2.563-2.314,6.145-3.963,10.753c-1.652,4.608-3.716,9.154-6.192,13.634c-2.478,4.482-5.45,8.383-8.918,11.713
			c-3.468,3.327-7.597,4.992-12.385,4.992c-4.459,0-7.803-1.824-10.032-5.473c-2.229-3.648-3.758-8.286-4.582-13.921
			c-0.824-5.632-1.114-11.905-0.867-18.817c0.248-6.913,0.701-13.663,1.362-20.258c0.658-6.592,1.32-12.607,1.981-18.05
			C653.948,52.339,654.281,48.211,654.281,45.394z"/>
		<path d="M743.203,84.948c-0.828,6.274-1.323,11.779-1.485,16.514c-0.167,4.737-0.333,9.091-0.496,13.058
			c6.107-5.887,11.31-13.441,15.605-22.658c0.495-1.278,1.277-2.143,2.354-2.592c1.071-0.447,2.144-0.544,3.22-0.288
			c1.072,0.258,1.896,0.768,2.478,1.536c0.576,0.768,0.619,1.794,0.123,3.072c-2.972,7.555-6.648,13.921-11.022,19.105
			c-4.377,5.185-8.96,9.505-13.747,12.961c-0.333,2.046-0.786,4.096-1.362,6.145c-0.581,2.046-1.281,4.158-2.105,6.337
			c-2.644,6.399-6.401,11.104-11.271,14.113c-4.873,3.006-9.827,4.8-14.862,5.376c-5.039,0.576-9.745,0.159-14.119-1.248
			c-4.377-1.41-7.307-3.33-8.793-5.761c-2.478-4.098-2.764-7.714-0.867-10.849c1.896-3.139,4.911-5.794,9.041-7.969
			c4.126-2.178,8.67-3.873,13.624-5.089c4.954-1.215,9.246-1.95,12.88-2.208l0.743-5.185c-1.323,1.41-3.096,2.626-5.325,3.648
			c-2.229,1.026-5.078,1.536-8.546,1.536c-6.111,0-10.898-1.344-14.367-4.032c-3.468-2.688-5.82-6.078-7.059-10.177
			c-1.239-4.096-1.486-8.512-0.743-13.249c0.743-4.734,2.268-9.121,4.582-13.153c2.311-4.032,5.364-7.359,9.165-9.984
			c3.797-2.623,8.174-3.937,13.128-3.937c2.973,0,5.86,0.768,8.67,2.304c3.301,1.794,5.697,3.97,7.184,6.528
			c1.485-0.255,3.011-0.351,4.582-0.287c1.567,0.065,3.054,0.32,4.459,0.768c1.4,0.45,2.516,1.152,3.344,2.112
			C743.037,82.356,743.366,83.542,743.203,84.948z M720.91,131.608c-4.791,0.64-9.207,1.95-13.252,3.937
			c-4.048,1.983-6.482,4.768-7.307,8.353c-0.496,2.047-0.043,3.583,1.362,4.608c1.4,1.023,3.178,1.278,5.325,0.769
			c2.145-0.513,4.459-1.953,6.936-4.32c2.478-2.37,4.54-5.923,6.192-10.657L720.91,131.608z M721.406,108.183
			c1.485-2.943,2.477-6.145,2.972-9.601c0.496-3.456,0.534-6.654,0.124-9.601c-0.414-2.943-1.281-5.473-2.601-7.585
			c-1.324-2.112-2.973-3.294-4.954-3.553c-2.148-0.255-4.087,0.547-5.821,2.4c-1.733,1.857-3.22,4.225-4.458,7.104
			c-1.239,2.881-2.105,6.019-2.602,9.409c-0.495,3.394-0.538,6.562-0.123,9.505c0.41,2.946,1.319,5.409,2.725,7.393
			c1.4,1.986,3.425,2.977,6.068,2.977c1.319,0,2.435-0.288,3.344-0.864c0.906-0.576,1.649-1.278,2.229-2.112
			c0.577-0.831,1.114-1.758,1.61-2.784C720.415,109.848,720.91,108.951,721.406,108.183z"/>
		<path d="M764.504,94.357c-0.333,1.026-1.033,1.762-2.105,2.208c-1.076,0.45-2.19,0.576-3.344,0.385
			c-1.157-0.192-2.067-0.64-2.725-1.345c-0.658-0.702-0.658-1.632,0-2.784l1.486-3.265c-1.486-1.151-2.311-2.496-2.478-4.032
			c-0.162-1.536,0.167-2.976,0.991-4.32c0.824-1.344,2.021-2.496,3.592-3.456c1.567-0.96,3.344-1.44,5.325-1.44
			c3.468,0,5.364,0.993,5.697,2.977c0.329,1.986-0.167,4.194-1.486,6.625c0.991,0.384,2.601,0.449,4.83,0.191
			c2.229-0.255,4.335-0.414,6.316-0.479c1.981-0.063,3.631,0.225,4.954,0.863c1.319,0.643,1.648,2.112,0.991,4.417
			c-0.662,2.304-1.362,5.059-2.105,8.257c-0.743,3.201-1.281,6.24-1.61,9.12c-0.333,2.881-0.333,5.347,0,7.393
			c0.329,2.05,1.238,3.072,2.725,3.072c0.991,0,2.268-1.118,3.839-3.359c1.568-2.238,3.178-4.831,4.831-7.777
			c1.648-2.943,3.135-5.919,4.458-8.929c1.32-3.006,2.145-5.28,2.478-6.816c0.329-1.278,1.029-2.175,2.105-2.688
			c1.072-0.51,2.187-0.734,3.344-0.672c1.153,0.066,2.105,0.45,2.849,1.152c0.743,0.705,1.029,1.698,0.867,2.976
			c-0.167,0.643-0.581,2.017-1.239,4.129c-0.661,2.112-1.571,4.482-2.725,7.104c-1.157,2.625-2.562,5.377-4.211,8.257
			c-1.652,2.88-3.634,5.538-5.944,7.969c-2.314,2.433-4.873,4.387-7.679,5.856c-2.811,1.47-5.945,2.143-9.413,2.017
			c-3.963-0.13-6.854-1.507-8.669-4.129c-1.819-2.622-2.973-5.761-3.468-9.409c-0.496-3.647-0.372-7.519,0.371-11.616
			c0.743-4.096,1.772-7.681,3.097-10.753c-0.829,0.129-1.653,0.191-2.478,0.191c-0.828,0-1.652,0-2.477,0
			C764.999,92.888,764.666,93.59,764.504,94.357z"/>
		<path d="M830.389,73.235c2.311,0.385,4.335,1.219,6.069,2.496c1.733,1.281,3.177,2.688,4.334,4.225
			c1.32-1.152,2.973-1.791,4.954-1.92c1.982-0.126,3.878,0.096,5.697,0.672c1.815,0.576,3.302,1.474,4.459,2.688
			c1.153,1.218,1.567,2.658,1.238,4.32c-0.662,2.304-1.281,5.185-1.857,8.641c-0.581,3.456-0.952,6.787-1.115,9.985
			c-0.166,3.201-0.042,5.952,0.372,8.256c0.41,2.305,1.277,3.457,2.601,3.457c0.991,0,2.187-0.99,3.592-2.977
			c1.401-1.983,2.806-4.32,4.211-7.009c1.401-2.688,2.682-5.376,3.839-8.064c1.153-2.688,1.896-4.734,2.229-6.145
			c0.496-1.278,1.32-2.143,2.478-2.592c1.153-0.447,2.268-0.576,3.344-0.385c1.072,0.192,1.981,0.672,2.725,1.44
			c0.743,0.768,0.867,1.729,0.372,2.88c-0.333,0.769-0.867,2.209-1.61,4.32c-0.743,2.112-1.695,4.45-2.849,7.009
			c-1.157,2.563-2.52,5.218-4.087,7.969c-1.571,2.755-3.387,5.185-5.449,7.297c-2.067,2.112-4.378,3.744-6.937,4.896
			c-2.562,1.152-5.325,1.407-8.298,0.768c-4.791-1.022-8.259-3.264-10.403-6.721c-1.323,3.072-3.139,5.857-5.449,8.354
			c-2.314,2.496-5.287,4.32-8.917,5.473c-3.468,0.894-6.525,1.086-9.165,0.575c-4.792-1.025-8.589-3.33-11.395-6.912
			c-2.81-3.582-4.706-7.744-5.697-12.481c-0.99-4.734-1.072-9.664-0.248-14.785c0.829-5.118,2.517-9.727,5.078-13.825
			c2.559-4.096,5.983-7.326,10.28-9.696C819.076,73.077,824.277,72.342,830.389,73.235z M836.829,92.629
			c-0.333-2.175-0.952-4.287-1.857-6.336c-0.91-2.046-2.272-3.198-4.087-3.456c-2.644-0.385-4.997,0.354-7.06,2.208
			c-2.067,1.857-3.759,4.32-5.078,7.393c-1.324,3.072-2.272,6.433-2.849,10.081c-0.581,3.648-0.743,7.104-0.495,10.368
			c0.247,3.265,0.905,6.049,1.981,8.354c1.072,2.304,2.682,3.585,4.83,3.84c2.145,0.258,4.168-0.639,6.068-2.688
			c1.896-2.046,3.55-4.671,4.954-7.872c1.401-3.198,2.478-6.751,3.221-10.657C837.201,99.959,837.324,96.215,836.829,92.629z"/>
		<path d="M916.837,148.891c0,2.559-1.076,4.863-3.221,6.912c-2.147,2.046-4.501,3.582-7.06,4.608
			c-2.562,1.023-4.872,1.407-6.936,1.152c-2.066-0.258-2.934-1.474-2.601-3.648c0.162-1.665,0.371-4.032,0.619-7.104
			s0.534-6.528,0.867-10.369c0.329-3.84,0.619-7.969,0.867-12.385c0.247-4.417,0.533-8.863,0.866-13.346
			c-1.652,3.457-3.963,6.403-6.936,8.833c-1.652,1.281-3.592,1.986-5.821,2.112c-2.229,0.126-4.377-0.192-6.439-0.96
			c-2.067-0.769-3.925-1.888-5.573-3.36c-1.653-1.47-2.725-3.168-3.221-5.089c-0.495-1.92-0.828-4.479-0.99-7.681
			c-0.167-3.198-0.248-6.654-0.248-10.368c0-3.712,0.081-7.519,0.248-11.426c0.162-3.903,0.247-7.647,0.247-11.232
			c0.163-2.305,1.277-3.999,3.345-5.089c2.063-1.086,4.334-1.728,6.812-1.92c2.477-0.192,4.745,0.066,6.812,0.769
			c2.063,0.705,3.011,1.761,2.849,3.168c-0.333,4.099-0.743,8.515-1.238,13.249c-0.496,4.737-0.952,9.187-1.362,13.345
			c-0.414,4.162-0.581,7.681-0.496,10.562c0.082,2.88,0.62,4.449,1.61,4.704c0.991,0.258,1.939-0.255,2.849-1.536
			c0.905-1.278,1.815-3.006,2.725-5.185c0.906-2.175,1.772-4.575,2.601-7.2c0.825-2.622,1.525-5.185,2.105-7.681
			c0.577-2.496,1.072-4.734,1.486-6.721c0.41-1.983,0.619-3.424,0.619-4.32c1.982-0.769,3.259-0.769,3.84,0
			c0.576,0.768,1.114,2.178,1.61,4.225c0.162,0.513,0.205,1.761,0.123,3.744c-0.085,1.986-0.414,4.354-0.99,7.104
			c-0.581,2.754-1.405,5.73-2.478,8.929c-1.075,3.201-2.438,6.211-4.087,9.024c0.496-7.038,0.906-13.729,1.238-20.065
			c0.329-6.337,0.577-11.359,0.743-15.073c0-1.536,0.991-2.718,2.973-3.553c1.981-0.831,4.126-1.277,6.44-1.344
			c2.311-0.063,4.373,0.288,6.192,1.056c1.815,0.769,2.64,1.921,2.478,3.457c-0.496,2.688-0.91,6.145-1.239,10.368
			c-0.332,4.225-0.619,8.737-0.866,13.538c-0.248,4.8-0.457,9.666-0.619,14.593c-0.167,4.93-0.291,9.505-0.372,13.729
			c-0.085,4.225-0.166,7.902-0.248,11.041C916.875,145.593,916.837,147.738,916.837,148.891z"/>
	</g>
	<rect x="791.842" y="179.528" width="137.605" height="55.28"/>
	
		<line fill="none" stroke="#000000" stroke-width="3" stroke-miterlimit="10" x1="490.078" y1="179.528" x2="929.447" y2="179.528"/>
	<g>
		<path d="M500.074,213.967c0.668,0.727,1.717,1.089,3.145,1.089c1.359,0,2.346-0.261,2.958-0.782s1.042-1.156,1.292-1.904
			c0.136-0.385,0.271-0.646,0.408-0.782c0.136-0.136,0.385-0.204,0.748-0.204h4.453c0.205,0,0.38,0.074,0.527,0.222
			s0.221,0.323,0.221,0.526c-0.022,1.52-0.504,2.919-1.445,4.199c-0.939,1.281-2.215,2.295-3.824,3.043s-3.389,1.122-5.338,1.122
			c-2.108,0-3.944-0.413-5.508-1.241c-1.564-0.827-2.777-1.938-3.639-3.332c-0.861-1.394-1.338-2.94-1.428-4.641
			c-0.045-1.088-0.068-1.983-0.068-2.686c0-0.839,0.023-1.961,0.068-3.366c0.068-1.7,0.532-3.247,1.395-4.642
			c0.861-1.394,2.078-2.504,3.654-3.332c1.575-0.827,3.417-1.24,5.525-1.24c1.949,0,3.729,0.374,5.338,1.122
			s2.885,1.763,3.824,3.043c0.941,1.28,1.423,2.681,1.445,4.198c0,0.204-0.073,0.38-0.221,0.527s-0.322,0.221-0.527,0.221h-4.453
			c-0.363,0-0.612-0.067-0.748-0.204c-0.137-0.136-0.272-0.396-0.408-0.781c-0.25-0.748-0.68-1.383-1.292-1.904
			s-1.599-0.782-2.958-0.782c-1.428,0-2.477,0.363-3.145,1.088c-0.67,0.726-1.049,1.678-1.14,2.856
			c-0.046,0.771-0.067,1.723-0.067,2.855c0,1.089,0.021,2.04,0.067,2.856C499.025,212.29,499.404,213.242,500.074,213.967z"/>
		<path d="M550.377,198.311c1.677,1.304,2.516,3.247,2.516,5.831c0,3.286-1.35,5.554-4.046,6.8l4.216,8.092
			c0.068,0.136,0.102,0.261,0.102,0.374c0,0.204-0.073,0.38-0.221,0.527s-0.322,0.221-0.527,0.221h-4.623
			c-0.408,0-0.715-0.085-0.918-0.255c-0.205-0.17-0.375-0.392-0.511-0.663l-3.774-7.276h-3.127v7.276
			c0,0.25-0.092,0.465-0.272,0.646c-0.182,0.183-0.397,0.272-0.646,0.272h-4.455c-0.249,0-0.465-0.09-0.646-0.272
			c-0.182-0.181-0.272-0.396-0.272-0.646v-21.964c0-0.249,0.091-0.465,0.272-0.646c0.181-0.181,0.396-0.271,0.646-0.271h9.215
			C546.342,196.355,548.699,197.007,550.377,198.311z M543.305,206.657c2.198,0,3.298-0.838,3.298-2.516s-1.1-2.517-3.298-2.517
			h-3.842v5.032H543.305z"/>
		<path d="M578.936,214.715h10.744c0.25,0,0.465,0.091,0.646,0.272s0.271,0.396,0.271,0.646v3.604c0,0.25-0.09,0.465-0.271,0.646
			c-0.182,0.183-0.396,0.272-0.646,0.272h-16.115c-0.25,0-0.465-0.09-0.646-0.272c-0.182-0.181-0.271-0.396-0.271-0.646v-21.964
			c0-0.249,0.09-0.465,0.271-0.646c0.182-0.181,0.396-0.271,0.646-0.271h15.844c0.249,0,0.465,0.091,0.646,0.271
			c0.181,0.182,0.271,0.397,0.271,0.646v3.604c0,0.25-0.091,0.465-0.271,0.646c-0.182,0.182-0.397,0.271-0.646,0.271h-10.473v3.672
			h9.725c0.249,0,0.465,0.092,0.646,0.272c0.181,0.182,0.271,0.396,0.271,0.646v3.604c0,0.25-0.091,0.465-0.271,0.646
			c-0.182,0.182-0.397,0.271-0.646,0.271h-9.725V214.715z"/>
		<path d="M629.494,218.897c0.09,0.227,0.137,0.396,0.137,0.51c0,0.204-0.074,0.38-0.222,0.527s-0.323,0.221-0.526,0.221h-4.285
			c-0.385,0-0.686-0.085-0.9-0.255c-0.216-0.17-0.357-0.368-0.425-0.595l-0.952-2.822h-9.044l-0.952,2.822
			c-0.068,0.227-0.21,0.425-0.425,0.595c-0.216,0.17-0.517,0.255-0.901,0.255h-4.283c-0.205,0-0.381-0.073-0.527-0.221
			c-0.148-0.147-0.221-0.323-0.221-0.527c0-0.113,0.045-0.283,0.135-0.51l7.412-21.42c0.113-0.317,0.295-0.584,0.545-0.799
			c0.249-0.216,0.578-0.323,0.986-0.323h5.508c0.408,0,0.736,0.107,0.985,0.323c0.249,0.215,0.431,0.481,0.544,0.799
			L629.494,218.897z M620.553,211.213l-2.754-8.159l-2.754,8.159H620.553z"/>
		<path d="M666.35,196.627c0.182,0.182,0.271,0.397,0.271,0.646v3.604c0,0.25-0.09,0.465-0.271,0.646s-0.396,0.271-0.646,0.271
			h-5.983v17.442c0,0.25-0.091,0.465-0.272,0.646c-0.182,0.183-0.396,0.272-0.646,0.272h-4.454c-0.25,0-0.465-0.09-0.646-0.272
			c-0.182-0.181-0.271-0.396-0.271-0.646v-17.442h-5.984c-0.25,0-0.465-0.09-0.646-0.271c-0.182-0.182-0.272-0.396-0.272-0.646
			v-3.604c0-0.249,0.091-0.465,0.272-0.646c0.181-0.181,0.396-0.271,0.646-0.271h18.258
			C665.953,196.355,666.168,196.446,666.35,196.627z"/>
		<path d="M685.797,219.883c-0.182-0.181-0.271-0.396-0.271-0.646v-21.964c0-0.249,0.09-0.465,0.271-0.646
			c0.182-0.181,0.396-0.271,0.646-0.271h4.454c0.249,0,0.464,0.091,0.646,0.271c0.182,0.182,0.272,0.397,0.272,0.646v21.964
			c0,0.25-0.091,0.465-0.272,0.646c-0.182,0.183-0.396,0.272-0.646,0.272h-4.454C686.193,220.155,685.979,220.065,685.797,219.883z"
			/>
		<path d="M717.826,218.795l-6.937-21.25c-0.067-0.204-0.103-0.351-0.103-0.441c0-0.204,0.074-0.38,0.222-0.527
			s0.323-0.221,0.526-0.221h4.284c0.386,0,0.686,0.085,0.901,0.255c0.215,0.17,0.357,0.368,0.425,0.595l4.726,14.96l4.727-14.96
			c0.068-0.227,0.209-0.425,0.425-0.595s0.516-0.255,0.901-0.255h4.283c0.205,0,0.38,0.073,0.527,0.221s0.221,0.323,0.221,0.527
			c0,0.091-0.033,0.237-0.102,0.441l-6.936,21.25c-0.318,0.907-0.918,1.36-1.803,1.36h-4.488
			C718.744,220.155,718.143,219.702,717.826,218.795z"/>
		<path d="M758.217,214.715h10.744c0.25,0,0.465,0.091,0.646,0.272s0.271,0.396,0.271,0.646v3.604c0,0.25-0.09,0.465-0.271,0.646
			c-0.182,0.183-0.396,0.272-0.646,0.272h-16.115c-0.25,0-0.465-0.09-0.646-0.272c-0.182-0.181-0.271-0.396-0.271-0.646v-21.964
			c0-0.249,0.09-0.465,0.271-0.646c0.182-0.181,0.396-0.271,0.646-0.271h15.844c0.249,0,0.465,0.091,0.646,0.271
			c0.181,0.182,0.271,0.397,0.271,0.646v3.604c0,0.25-0.091,0.465-0.271,0.646c-0.182,0.182-0.397,0.271-0.646,0.271h-10.473v3.672
			h9.725c0.249,0,0.465,0.092,0.646,0.272c0.181,0.182,0.271,0.396,0.271,0.646v3.604c0,0.25-0.091,0.465-0.271,0.646
			c-0.182,0.182-0.397,0.271-0.646,0.271h-9.725V214.715z"/>
		<path fill="#FFFFFF" d="M829.99,214.987c0.182,0.182,0.272,0.396,0.272,0.646v3.604c0,0.25-0.091,0.465-0.272,0.646
			c-0.182,0.183-0.396,0.272-0.646,0.272h-15.742c-0.249,0-0.465-0.09-0.646-0.272c-0.182-0.181-0.272-0.396-0.272-0.646v-21.964
			c0-0.249,0.091-0.465,0.272-0.646c0.181-0.181,0.396-0.271,0.646-0.271h4.454c0.249,0,0.465,0.091,0.646,0.271
			c0.181,0.182,0.271,0.397,0.271,0.646v17.441h10.37C829.594,214.715,829.809,214.806,829.99,214.987z"/>
		<path fill="#FFFFFF" d="M870.553,218.897c0.09,0.227,0.137,0.396,0.137,0.51c0,0.204-0.074,0.38-0.222,0.527
			s-0.323,0.221-0.526,0.221h-4.285c-0.385,0-0.686-0.085-0.9-0.255c-0.216-0.17-0.357-0.368-0.425-0.595l-0.952-2.822h-9.044
			l-0.952,2.822c-0.068,0.227-0.21,0.425-0.425,0.595c-0.216,0.17-0.517,0.255-0.901,0.255h-4.283c-0.205,0-0.381-0.073-0.527-0.221
			c-0.148-0.147-0.221-0.323-0.221-0.527c0-0.113,0.045-0.283,0.135-0.51l7.412-21.42c0.113-0.317,0.295-0.584,0.545-0.799
			c0.249-0.216,0.578-0.323,0.986-0.323h5.508c0.408,0,0.736,0.107,0.985,0.323c0.249,0.215,0.431,0.481,0.544,0.799
			L870.553,218.897z M861.611,211.213l-2.754-8.159l-2.754,8.159H861.611z"/>
		<path fill="#FFFFFF" d="M889.559,219.883c-0.182-0.181-0.272-0.396-0.272-0.646v-21.964c0-0.249,0.091-0.465,0.272-0.646
			c0.181-0.181,0.396-0.271,0.646-0.271h10.948c1.926,0,3.49,0.34,4.691,1.02c1.201,0.681,2.068,1.547,2.602,2.602
			c0.532,1.054,0.799,2.204,0.799,3.451c0,1.133-0.199,2.045-0.595,2.736c-0.397,0.692-0.833,1.219-1.31,1.581
			c0.861,0.59,1.474,1.287,1.836,2.091c0.363,0.806,0.545,1.785,0.545,2.941c0,2.108-0.635,3.865-1.904,5.27
			c-1.27,1.406-3.253,2.108-5.95,2.108h-11.662C889.955,220.155,889.739,220.065,889.559,219.883z M895.576,201.625v3.876h5.27
			c0.681,0,1.195-0.17,1.547-0.51s0.527-0.816,0.527-1.428c0-0.612-0.176-1.088-0.527-1.428c-0.352-0.341-0.866-0.511-1.547-0.511
			H895.576z M901.186,214.886c0.681,0,1.225-0.192,1.633-0.578s0.611-0.885,0.611-1.496c0-0.612-0.203-1.11-0.611-1.496
			s-0.952-0.578-1.633-0.578h-5.609v4.148H901.186z"/>
	</g>
</g>
</svg>
